<svg width="72" height="69" viewBox="0 0 72 69" fill="none" xmlns="http://www.w3.org/2000/svg">
<g filter="url(#filter0_d_302815_4140)">
<path d="M67.9481 9.04812C67.8222 8.66299 67.4895 8.38149 67.0873 8.32274L63.2665 7.76698L61.5566 4.30455C61.1983 3.57492 60.0025 3.57492 59.6441 4.30455L57.9342 7.76698L54.1133 8.32286C53.7112 8.38149 53.3784 8.66212 53.2514 9.04825C53.1266 9.43438 53.23 9.85889 53.5213 10.1416L56.2872 12.8372L55.6344 16.6431C55.5662 17.0431 55.7304 17.4474 56.0579 17.6864C56.3897 17.9275 56.8227 17.9573 57.1822 17.7674L60.5999 15.97L64.0176 17.7674C64.1733 17.8495 64.3451 17.89 64.5147 17.89C64.7354 17.89 64.9563 17.8218 65.1419 17.6863C65.4704 17.4474 65.6347 17.043 65.5654 16.643L64.9127 12.8371L67.6786 10.1415C67.9684 9.85776 68.073 9.43425 67.9481 9.04812ZM63.0223 11.702C62.7717 11.9463 62.6564 12.3004 62.7162 12.6461L63.098 14.8743L61.097 13.8226C60.9413 13.7404 60.7706 13.6999 60.5999 13.6999C60.4292 13.6999 60.2596 13.7404 60.1027 13.8226L58.1016 14.8743L58.4835 12.6461C58.5432 12.3004 58.428 11.9474 58.1773 11.702L56.5571 10.1234L58.795 9.79801C59.1427 9.74788 59.4425 9.52926 59.5982 9.2145L60.5988 7.18785L61.5993 9.2145C61.755 9.52913 62.0548 9.74788 62.4025 9.79801L64.6404 10.1234L63.0223 11.702Z" fill="#4D5AE5"/>
<path d="M56.2669 41.0444H54.1335V43.1778H56.2669V41.0444Z" fill="#4D5AE5"/>
<path d="M56.2669 45.3112H54.1335V47.4446H56.2669V45.3112Z" fill="#4D5AE5"/>
<path d="M58.4003 43.1778H56.2669V45.3112H58.4003V43.1778Z" fill="#4D5AE5"/>
<path d="M54.1337 43.1778H52.0003V45.3112H54.1337V43.1778Z" fill="#4D5AE5"/>
<path d="M48.8002 52.778H46.6668V54.9113H48.8002V52.778Z" fill="#4D5AE5"/>
<path d="M48.8002 57.0446H46.6668V59.1781H48.8002V57.0446Z" fill="#4D5AE5"/>
<path d="M50.9336 54.9113H48.8002V57.0448H50.9336V54.9113Z" fill="#4D5AE5"/>
<path d="M46.6668 54.9113H44.5334V57.0448H46.6668V54.9113Z" fill="#4D5AE5"/>
<path d="M36 48.5113H33.8666V50.6447H36V48.5113Z" fill="#4D5AE5"/>
<path d="M36 52.778H33.8666V54.9113H36V52.778Z" fill="#4D5AE5"/>
<path d="M38.1334 50.6445H36V52.7779H38.1334V50.6445Z" fill="#4D5AE5"/>
<path d="M33.8666 50.6445H31.7332V52.7779H33.8666V50.6445Z" fill="#4D5AE5"/>
<path d="M15.733 12.2439H13.5996V14.3773H15.733V12.2439Z" fill="#4D5AE5"/>
<path d="M15.733 16.5108H13.5996V18.6442H15.733V16.5108Z" fill="#4D5AE5"/>
<path d="M17.8663 14.3774H15.7329V16.5108H17.8663V14.3774Z" fill="#4D5AE5"/>
<path d="M13.5996 14.3774H11.4662V16.5108H13.5996V14.3774Z" fill="#4D5AE5"/>
<path d="M53.4295 28.3189C52.8546 27.5434 52.0109 27.0443 51.053 26.9098C50.0909 26.7733 49.1415 27.026 48.3734 27.6138L45.8699 29.5327L45.8688 29.5338L42.0735 32.368L39.3577 31.2864C44.2004 29.1136 47.5851 24.2698 47.5851 18.6462C47.5851 11.0002 41.3396 4.77933 33.6627 4.77933C25.9858 4.77933 19.7405 11.0002 19.7405 18.6462C19.7405 21.4175 20.5693 23.9945 21.9805 26.163L16.4529 26.115C16.4497 26.115 16.4466 26.115 16.4433 26.115C16.4262 26.115 16.4124 26.1235 16.3964 26.1247C16.2908 26.1289 16.1873 26.1503 16.0861 26.1865C16.0604 26.1962 16.0338 26.2015 16.0093 26.2132C15.9966 26.2185 15.9837 26.2195 15.9709 26.2259L9.50471 29.4185C9.50359 29.4185 9.50259 29.4185 9.50259 29.4195L5.71578 31.2405C5.67415 31.2586 5.63153 31.2831 5.5899 31.3109C4.0805 32.3156 3.56637 34.289 4.39313 35.9018C4.83364 36.7594 5.58352 37.391 6.50516 37.68C6.86042 37.7908 7.22305 37.8453 7.58356 37.8453C8.16282 37.8453 8.7367 37.7035 9.26246 37.423L12.038 35.9467L16.5661 33.6085L19.2797 33.5925L8.39632 44.4237C8.39532 44.4248 8.39419 44.4248 8.39307 44.4258L5.71565 47.0925C5.08314 47.7219 4.73539 48.557 4.73539 49.4478C4.73539 50.3374 5.08314 51.1747 5.71565 51.8052C6.36529 52.4516 7.21968 52.7758 8.07406 52.7758C8.92958 52.7758 9.78284 52.4516 10.4346 51.8052L13.0629 49.1875L16.5446 46.588L18.3462 48.3821L14.8229 51.8904C14.8219 51.8916 14.8208 51.8916 14.8197 51.8926L12.1423 54.5592C11.5097 55.1886 11.162 56.0237 11.162 56.9145C11.162 57.8041 11.5097 58.6414 12.1423 59.2719C12.7919 59.9183 13.6474 60.2426 14.5018 60.2426C15.3562 60.2426 16.2117 59.9183 16.8623 59.2719L19.5407 56.6052L23.8256 52.3386C23.8267 52.3374 23.8267 52.3364 23.8277 52.3353L25.847 50.3353L25.8395 50.3278C25.8522 50.315 25.8703 50.3106 25.8832 50.2969L36.2151 38.9805L43.1571 39.9682C43.2072 39.9757 43.2574 39.9789 43.3075 39.9789C43.4366 39.9789 43.5614 39.948 43.6819 39.9021C43.7171 39.8894 43.748 39.8722 43.7811 39.8552C43.8195 39.836 43.86 39.8254 43.8964 39.8009L50.3231 35.5342C50.3466 35.5182 50.3594 35.4925 50.3817 35.4755C50.4074 35.4553 50.4394 35.4468 50.4627 35.4243L53.0056 33.0424C54.3288 31.8026 54.5112 29.7717 53.4295 28.3189ZM8.26082 35.5403C7.91419 35.7259 7.52056 35.7632 7.14405 35.6438C6.77067 35.5275 6.46779 35.2725 6.29066 34.928C5.96853 34.3008 6.15516 33.537 6.71942 33.1243L9.34671 31.8602L9.97922 33.7088L10.2448 34.4853L8.26082 35.5403ZM15.2551 31.8849L12.1585 33.4849L11.6476 31.9915L11.2807 30.9184L15.3342 28.9172L15.2551 31.8849ZM45.4539 18.644C45.4539 20.4808 45.0155 22.2132 44.256 23.763L35.8933 19.9646C35.8057 18.8179 35.2106 17.8142 34.3167 17.189L37.2448 7.46837C42.0001 8.98102 45.4539 13.4173 45.4539 18.644ZM21.876 18.644C21.876 12.1746 27.1646 6.91049 33.665 6.91049C34.1706 6.91049 34.6655 6.95311 35.1551 7.01499L32.2911 16.5224C32.2527 16.5213 32.2164 16.5106 32.1769 16.5106C30.1118 16.5106 28.4318 18.1853 28.4318 20.2441C28.4318 22.3027 30.1118 23.9775 32.1769 23.9775C33.5657 23.9775 34.7657 23.2106 35.4132 22.0883L43.1381 25.5978C40.9887 28.4906 37.5487 30.3776 33.6648 30.3776C27.1646 30.3776 21.876 25.1135 21.876 18.644ZM33.7887 20.2441C33.7887 21.1262 33.0655 21.8441 32.1769 21.8441C31.2884 21.8441 30.5652 21.1262 30.5652 20.2441C30.5652 19.3619 31.2884 18.644 32.1769 18.644C33.0655 18.644 33.7887 19.3619 33.7887 20.2441ZM8.9297 50.2925C8.4572 50.7608 7.69231 50.7598 7.22093 50.2936C6.99367 50.0664 6.86892 49.7668 6.86892 49.4478C6.86892 49.1299 6.99367 48.8301 7.22093 48.6051L9.14508 46.6882L10.8475 48.3832L8.9297 50.2925ZM15.3574 57.7594C14.8849 58.2276 14.119 58.2288 13.6475 57.7605C13.4203 57.5333 13.2955 57.2336 13.2955 56.9146C13.2955 56.5967 13.4203 56.297 13.6475 56.072L15.5729 54.1541L16.3783 54.9552L17.2765 55.8491L15.3574 57.7594ZM22.3208 50.8217C22.3197 50.8227 22.3187 50.8227 22.3175 50.8238L18.7879 54.3438L17.9825 53.5427L17.0843 52.6488L20.6108 49.1384C20.6108 49.1384 20.6108 49.1384 20.6108 49.1374C20.6119 49.1363 20.6129 49.1363 20.614 49.1353C20.694 49.0553 20.7441 48.9593 20.7933 48.8644C20.8071 48.8366 20.8338 48.8131 20.8455 48.7844C20.8786 48.7023 20.8839 48.6138 20.8968 48.5272C20.9031 48.4781 20.9245 48.4324 20.9245 48.3821C20.9245 48.3106 20.8989 48.2414 20.884 48.1709C20.8713 48.1069 20.8713 48.0417 20.8466 47.98C20.8061 47.8797 20.7368 47.7912 20.6643 47.7047C20.644 47.6812 20.6365 47.6514 20.6141 47.629C20.6141 47.629 20.6141 47.629 20.613 47.629C20.6119 47.628 20.6119 47.6257 20.6109 47.6247L17.397 44.4247C17.3628 44.3906 17.3191 44.3767 17.2807 44.3479C17.2242 44.3042 17.1698 44.2637 17.1068 44.2327C17.0461 44.2028 16.9842 44.1847 16.9202 44.1676C16.852 44.1483 16.7858 44.1334 16.7143 44.1281C16.6492 44.1238 16.5884 44.1302 16.5234 44.1377C16.4519 44.1462 16.3848 44.1558 16.3154 44.1782C16.2482 44.1996 16.1886 44.2326 16.1267 44.2678C16.0872 44.2902 16.0424 44.2977 16.0051 44.3254L12.4584 46.973L10.6567 45.1788L15.4547 40.4065L24.1759 48.9838L22.3208 50.8217ZM35.9584 36.7883C35.9275 36.7841 35.8986 36.7958 35.8678 36.7937C35.7899 36.7894 35.7153 36.7948 35.6374 36.8076C35.5766 36.8182 35.519 36.8299 35.4614 36.8502C35.3931 36.8737 35.3312 36.9057 35.2682 36.9441C35.2085 36.9803 35.1541 37.0187 35.1019 37.0667C35.0762 37.0891 35.0454 37.0998 35.0219 37.1253L25.6253 47.4167L16.9692 38.9035L22.6354 33.2671C23.0525 32.8511 23.0547 32.1759 22.6387 31.7577C22.4285 31.5476 22.1523 31.4441 21.876 31.4452V31.4442L17.4386 31.4709L17.4941 28.2559L23.7022 28.3093C26.2324 30.8971 29.7609 32.511 33.665 32.511C34.5396 32.511 35.393 32.4204 36.2239 32.2656C36.3039 32.3296 36.3828 32.3948 36.4831 32.4353L41.3025 34.3553L41.6075 35.8721L41.9637 37.6427L35.9584 36.7883ZM44.0406 37.1446L43.4145 34.0288L46.3073 31.8687L47.0647 32.8735L48.2007 34.3818L44.0406 37.1446ZM51.5479 31.4826L49.8721 33.0528L48.0097 30.5802L49.6726 29.3056C49.983 29.0667 50.3745 28.9696 50.7585 29.0197C51.1446 29.0741 51.486 29.2757 51.7185 29.5882C52.1516 30.1717 52.078 30.9856 51.5479 31.4826Z" fill="#2E2F42"/>
<path d="M31.2042 37.0881L26.9182 32.8214C26.5033 32.4065 25.8291 32.4065 25.4131 32.8214L21.1283 37.0881C20.9278 37.2897 20.8146 37.5606 20.8146 37.8443C20.8146 38.1281 20.9266 38.4001 21.1283 38.6006L25.4131 42.8673C25.6211 43.0742 25.8942 43.1777 26.1662 43.1777C26.4382 43.1777 26.7112 43.0742 26.9182 42.8673L31.2042 38.6006C31.4047 38.4001 31.5188 38.1281 31.5188 37.8443C31.5188 37.5606 31.4057 37.2886 31.2042 37.0881ZM26.1662 40.606L23.3928 37.8443L26.1662 35.0827L28.9406 37.8443L26.1662 40.606Z" fill="#2E2F42"/>
<path d="M38.3285 10.1415L37.8133 12.2131C37.9552 12.2483 41.2886 13.1166 41.2886 16.5108H43.422C43.4219 12.4765 40.0907 10.5799 38.3285 10.1415Z" fill="#2E2F42"/>
<path d="M43.422 18.644H41.2886V20.7775H43.422V18.644Z" fill="#2E2F42"/>
</g>
<defs>
<filter id="filter0_d_302815_4140" x="0" y="0" width="72" height="72" filterUnits="userSpaceOnUse" color-interpolation-filters="sRGB">
<feFlood flood-opacity="0" result="BackgroundImageFix"/>
<feColorMatrix in="SourceAlpha" type="matrix" values="0 0 0 0 0 0 0 0 0 0 0 0 0 0 0 0 0 0 127 0" result="hardAlpha"/>
<feOffset dy="4"/>
<feGaussianBlur stdDeviation="2"/>
<feComposite in2="hardAlpha" operator="out"/>
<feColorMatrix type="matrix" values="0 0 0 0 0 0 0 0 0 0 0 0 0 0 0 0 0 0 0.25 0"/>
<feBlend mode="normal" in2="BackgroundImageFix" result="effect1_dropShadow_302815_4140"/>
<feBlend mode="normal" in="SourceGraphic" in2="effect1_dropShadow_302815_4140" result="shape"/>
</filter>
</defs>
</svg>
