<?xml version="1.0" encoding="utf-8"?>
<!-- Generated by IcoMoon.io -->
<svg version="1.1" xmlns="http://www.w3.org/2000/svg" xmlns:xlink="http://www.w3.org/1999/xlink" width="752" height="32" viewBox="0 0 752 32">
<svg id="icon-antenna" width="30" height="32" viewBox="0 0 30 32" x="0" y="0">
<path fill="#2e2f42" d="M28.243 19.642l-7.505-7.56 0.833-4.103c0.215 0.084 0.443 0.128 0.674 0.129h0.006c1.060 0.013 1.929-0.836 1.942-1.896s-0.836-1.929-1.896-1.942c-1.060-0.013-1.929 0.836-1.942 1.896-0.003 0.227 0.035 0.452 0.111 0.666l-4.409 0.538-7.192-7.229c-0.088-0.090-0.209-0.141-0.335-0.142-0.124 0.001-0.244 0.050-0.332 0.138l-1.345 1.337c-0.185 0.185-0.185 0.485 0 0.67l0.723 0.734c-2.803 5.154-1.892 11.536 2.24 15.7 0.038 0.036 0.082 0.066 0.13 0.087-0.030 0.16-0.045 0.323-0.046 0.486v5.499h-5.689c-1.308 0.002-2.369 1.062-2.37 2.37v0.948c0 0.262 0.212 0.474 0.474 0.474h21.807c0.262 0 0.474-0.212 0.474-0.474v-0.948c-0.002-1.308-1.062-2.369-2.37-2.37h-5.689v-2.437c0.891 0.187 1.799 0.282 2.71 0.284 2.185-0.002 4.335-0.547 6.258-1.585l0.727 0.732c0.088 0.090 0.209 0.141 0.335 0.142 0.124-0.001 0.244-0.050 0.332-0.138l1.345-1.337c0.185-0.185 0.185-0.485 0-0.67zM21.582 5.54c0.371-0.369 0.972-0.368 1.341 0.004s0.368 0.972-0.004 1.341c-0.178 0.177-0.418 0.276-0.669 0.276h-0.003c-0.524-0.003-0.946-0.429-0.943-0.953 0.001-0.251 0.102-0.491 0.28-0.667h-0.002zM20.466 8.656l-0.532 2.618-1.045-1.051 1.577-1.567zM19.928 7.854l-1.707 1.697-1.32-1.327 3.027-0.369zM22.226 25.6c0.785 0 1.422 0.637 1.422 1.422v0.474h-20.859v-0.474c0-0.785 0.637-1.422 1.422-1.422h18.015zM15.589 23.704v0.948h-4.741v-0.948h4.741zM10.848 22.756v-3.603c0-1.15 1.063-2.086 2.37-2.086s2.37 0.936 2.37 2.086v3.603h-4.741zM16.537 21.248v-2.095c0-1.673-1.489-3.034-3.319-3.034-1.183-0.018-2.29 0.584-2.917 1.588-3.607-3.799-4.419-9.462-2.025-14.122l16.535 16.63c-2.553 1.299-5.48 1.665-8.274 1.034zM26.572 20.64l-18.717-18.827 0.671-0.668 7.053 7.093c0.003 0 0.005 0.006 0.009 0.009l11.657 11.726-0.673 0.668z"></path>
<path fill="#4d5ae5" d="M13.223 18.015h-0.004c-0.785-0.001-1.423 0.635-1.424 1.42s0.635 1.423 1.42 1.424h0.004c0.785 0.001 1.423-0.635 1.424-1.42s-0.635-1.423-1.42-1.424zM13.555 19.773c-0.089 0.089-0.21 0.138-0.336 0.138-0.262-0.001-0.473-0.215-0.472-0.477 0.001-0.125 0.051-0.245 0.14-0.334s0.207-0.137 0.332-0.138c0.262 0.001 0.473 0.215 0.472 0.477-0.001 0.125-0.051 0.245-0.14 0.334h0.004z"></path>
</svg>
<svg id="icon-astronaut" width="32" height="32" viewBox="0 0 32 32" x="48" y="0">
<path fill="#4d5ae5" d="M30.199 4.688c-0.056-0.171-0.204-0.296-0.383-0.322l-1.698-0.247-0.76-1.539c-0.159-0.324-0.691-0.324-0.85 0l-0.76 1.539-1.698 0.247c-0.179 0.026-0.327 0.151-0.383 0.322s-0.009 0.36 0.12 0.486l1.229 1.198-0.29 1.691c-0.030 0.178 0.043 0.357 0.188 0.464 0.147 0.107 0.34 0.12 0.5 0.036l1.519-0.799 1.519 0.799c0.069 0.037 0.146 0.055 0.221 0.055 0.098 0 0.196-0.030 0.279-0.091 0.146-0.106 0.219-0.286 0.188-0.464l-0.29-1.691 1.229-1.198c0.129-0.126 0.175-0.314 0.12-0.486zM28.010 5.868c-0.111 0.109-0.163 0.266-0.136 0.42l0.17 0.99-0.889-0.467c-0.069-0.037-0.145-0.055-0.221-0.055s-0.151 0.018-0.221 0.055l-0.889 0.467 0.17-0.99c0.027-0.154-0.025-0.311-0.136-0.42l-0.72-0.702 0.995-0.145c0.155-0.022 0.288-0.119 0.357-0.259l0.445-0.901 0.445 0.901c0.069 0.14 0.202 0.237 0.357 0.259l0.995 0.145-0.719 0.702z"></path>
<path fill="#4d5ae5" d="M25.008 18.909h-0.948v0.948h0.948v-0.948z"></path>
<path fill="#4d5ae5" d="M25.008 20.805h-0.948v0.948h0.948v-0.948z"></path>
<path fill="#4d5ae5" d="M25.956 19.857h-0.948v0.948h0.948v-0.948z"></path>
<path fill="#4d5ae5" d="M24.059 19.857h-0.948v0.948h0.948v-0.948z"></path>
<path fill="#4d5ae5" d="M21.689 24.124h-0.948v0.948h0.948v-0.948z"></path>
<path fill="#4d5ae5" d="M21.689 26.020h-0.948v0.948h0.948v-0.948z"></path>
<path fill="#4d5ae5" d="M22.637 25.072h-0.948v0.948h0.948v-0.948z"></path>
<path fill="#4d5ae5" d="M20.741 25.072h-0.948v0.948h0.948v-0.948z"></path>
<path fill="#4d5ae5" d="M16 22.227h-0.948v0.948h0.948v-0.948z"></path>
<path fill="#4d5ae5" d="M16 24.124h-0.948v0.948h0.948v-0.948z"></path>
<path fill="#4d5ae5" d="M16.948 23.175h-0.948v0.948h0.948v-0.948z"></path>
<path fill="#4d5ae5" d="M15.052 23.175h-0.948v0.948h0.948v-0.948z"></path>
<path fill="#4d5ae5" d="M6.992 6.108h-0.948v0.948h0.948v-0.948z"></path>
<path fill="#4d5ae5" d="M6.992 8.005h-0.948v0.948h0.948v-0.948z"></path>
<path fill="#4d5ae5" d="M7.941 7.057h-0.948v0.948h0.948v-0.948z"></path>
<path fill="#4d5ae5" d="M6.044 7.057h-0.948v0.948h0.948v-0.948z"></path>
<path fill="#2e2f42" d="M23.746 13.253c-0.256-0.345-0.631-0.566-1.056-0.626-0.428-0.061-0.85 0.052-1.191 0.313l-1.113 0.853-1.687 1.26-1.207-0.481c2.152-0.966 3.657-3.118 3.657-5.618 0-3.398-2.776-6.163-6.188-6.163s-6.188 2.765-6.188 6.163c0 1.232 0.368 2.377 0.996 3.341l-2.457-0.021c-0.001 0-0.003 0-0.004 0-0.008 0-0.014 0.004-0.021 0.004-0.047 0.002-0.093 0.011-0.138 0.027-0.011 0.004-0.023 0.007-0.034 0.012-0.006 0.002-0.011 0.003-0.017 0.006l-2.874 1.419c-0 0-0.001 0-0.001 0l-1.683 0.809c-0.018 0.008-0.037 0.019-0.056 0.031-0.671 0.447-0.899 1.324-0.532 2.040 0.196 0.381 0.529 0.662 0.939 0.79 0.158 0.049 0.319 0.073 0.479 0.073 0.257 0 0.513-0.063 0.746-0.188l1.234-0.656 2.013-1.039 1.206-0.007-4.837 4.814c-0 0-0.001 0-0.001 0.001l-1.19 1.185c-0.281 0.28-0.436 0.651-0.436 1.047s0.155 0.767 0.436 1.048c0.289 0.287 0.668 0.431 1.048 0.431s0.759-0.144 1.049-0.431l1.168-1.163 1.547-1.155 0.801 0.797-1.566 1.559c-0 0.001-0.001 0.001-0.001 0.001l-1.19 1.185c-0.281 0.28-0.436 0.651-0.436 1.047s0.155 0.767 0.436 1.048c0.289 0.287 0.669 0.431 1.049 0.431s0.76-0.144 1.049-0.431l3.095-3.081c0.001-0.001 0.001-0.001 0.001-0.001l0.897-0.889-0.003-0.003c0.006-0.006 0.014-0.008 0.019-0.014l4.592-5.029 3.085 0.439c0.022 0.003 0.045 0.005 0.067 0.005 0.057 0 0.113-0.014 0.166-0.034 0.016-0.006 0.029-0.013 0.044-0.021 0.017-0.009 0.035-0.013 0.051-0.024l2.856-1.896c0.010-0.007 0.016-0.019 0.026-0.026 0.011-0.009 0.026-0.013 0.036-0.023l1.13-1.059c0.588-0.551 0.669-1.454 0.188-2.099zM3.671 16.462c-0.154 0.082-0.329 0.099-0.496 0.046-0.166-0.052-0.301-0.165-0.379-0.318-0.143-0.279-0.060-0.618 0.191-0.802l1.168-0.562 0.399 1.167-0.882 0.469zM6.78 14.838l-1.376 0.711-0.39-1.141 1.802-0.889-0.035 1.319zM20.202 8.953c0 0.816-0.195 1.586-0.532 2.275l-3.717-1.688c-0.039-0.51-0.303-0.956-0.701-1.234l1.301-4.32c2.113 0.672 3.648 2.644 3.648 4.967zM9.723 8.953c0-2.875 2.351-5.215 5.24-5.215 0.225 0 0.445 0.019 0.662 0.046l-1.273 4.226c-0.017-0.001-0.033-0.005-0.051-0.005-0.918 0-1.665 0.744-1.665 1.659s0.747 1.659 1.665 1.659c0.617 0 1.151-0.341 1.438-0.84l3.433 1.56c-0.955 1.286-2.484 2.124-4.21 2.124-2.889 0-5.239-2.34-5.239-5.215zM15.017 9.664c0 0.392-0.321 0.711-0.716 0.711s-0.716-0.319-0.716-0.711c0-0.392 0.321-0.711 0.716-0.711s0.716 0.319 0.716 0.711zM3.969 23.019c-0.21 0.208-0.55 0.208-0.759 0-0.101-0.101-0.156-0.234-0.156-0.376s0.055-0.275 0.156-0.375l0.855-0.852 0.757 0.753-0.852 0.849zM6.825 26.337c-0.21 0.208-0.55 0.209-0.76 0-0.101-0.101-0.156-0.234-0.156-0.376s0.055-0.274 0.156-0.375l0.856-0.852 0.757 0.753-0.853 0.849zM9.92 23.254c-0.001 0-0.001 0-0.001 0.001l-1.569 1.564-0.757-0.753 1.567-1.56c0 0 0 0 0-0s0.001-0 0.001-0.001c0.036-0.036 0.058-0.078 0.080-0.12 0.006-0.012 0.018-0.023 0.023-0.036 0.015-0.037 0.017-0.076 0.023-0.114 0.003-0.022 0.012-0.042 0.012-0.064 0-0.032-0.011-0.063-0.018-0.094-0.006-0.028-0.006-0.057-0.017-0.085-0.018-0.045-0.049-0.084-0.081-0.122-0.009-0.010-0.012-0.024-0.022-0.034 0 0 0 0-0.001 0s-0.001-0.001-0.001-0.002l-1.428-1.422c-0.015-0.015-0.035-0.021-0.052-0.034-0.025-0.019-0.049-0.037-0.077-0.051-0.027-0.013-0.054-0.021-0.083-0.029-0.030-0.009-0.060-0.015-0.091-0.018-0.029-0.002-0.056 0.001-0.085 0.004-0.032 0.004-0.062 0.008-0.092 0.018s-0.056 0.024-0.084 0.040c-0.018 0.010-0.037 0.013-0.054 0.026l-1.576 1.177-0.801-0.797 2.132-2.121 3.876 3.812-0.825 0.817zM15.982 17.017c-0.014-0.002-0.027 0.003-0.040 0.002-0.035-0.002-0.068 0-0.102 0.006-0.027 0.005-0.053 0.010-0.078 0.019-0.030 0.010-0.058 0.025-0.086 0.042-0.027 0.016-0.051 0.033-0.074 0.055-0.011 0.010-0.025 0.015-0.036 0.026l-4.176 4.574-3.847-3.784 2.518-2.505c0.185-0.185 0.186-0.485 0.001-0.671-0.093-0.093-0.216-0.139-0.339-0.139v-0l-1.972 0.012 0.025-1.429 2.759 0.024c1.125 1.15 2.693 1.867 4.428 1.867 0.389 0 0.768-0.040 1.137-0.109 0.036 0.028 0.071 0.057 0.115 0.075l2.142 0.853 0.136 0.674 0.158 0.787-2.669-0.38zM19.574 17.175l-0.278-1.385 1.286-0.96 0.841 1.117-1.849 1.228zM22.91 14.659l-0.745 0.698-0.828-1.099 0.739-0.566c0.138-0.106 0.312-0.149 0.483-0.127 0.172 0.024 0.323 0.114 0.427 0.253 0.192 0.259 0.16 0.621-0.076 0.842z"></path>
<path fill="#2e2f42" d="M13.869 17.15l-1.905-1.896c-0.184-0.184-0.484-0.184-0.669 0l-1.904 1.896c-0.089 0.090-0.139 0.21-0.139 0.336s0.050 0.247 0.139 0.336l1.904 1.896c0.092 0.092 0.214 0.138 0.335 0.138s0.242-0.046 0.334-0.138l1.905-1.896c0.089-0.089 0.14-0.21 0.14-0.336s-0.050-0.247-0.14-0.336zM11.629 18.714l-1.233-1.227 1.233-1.227 1.233 1.227-1.233 1.227z"></path>
<path fill="#2e2f42" d="M17.035 5.174l-0.229 0.921c0.063 0.016 1.545 0.402 1.545 1.91h0.948c-0-1.793-1.481-2.636-2.264-2.831z"></path>
<path fill="#2e2f42" d="M19.299 8.953h-0.948v0.948h0.948v-0.948z"></path>
</svg>
<svg id="icon-clock" width="31" height="32" viewBox="0 0 31 32" x="96" y="0">
<path fill="#2e2f42" d="M29.153 13.601c-0.002-7.513-6.094-13.603-13.607-13.601s-13.603 6.094-13.601 13.607c0.001 5.918 3.828 11.157 9.466 12.957 0.054 0.017 0.11 0.026 0.166 0.025 0.107-0 0.212-0.029 0.304-0.083 0.12-0.071 0.21-0.184 0.252-0.317l3.436-10.889c0.939-0.005 1.697-0.77 1.692-1.709s-0.77-1.697-1.709-1.692c-0.253 0.001-0.502 0.059-0.729 0.17l-4.539-4.539c-0.225-0.217-0.584-0.211-0.801 0.014-0.212 0.22-0.212 0.568 0 0.788l4.536 4.541c-0.348 0.71-0.149 1.568 0.477 2.053l-3.273 10.376c-6.469-2.383-9.782-9.559-7.399-16.028s9.559-9.782 16.028-7.399c6.469 2.383 9.782 9.559 7.399 16.028-1.164 3.161-3.556 5.717-6.633 7.087l-0.354-1.666c-0.065-0.306-0.366-0.502-0.672-0.437-0.097 0.021-0.186 0.066-0.26 0.132l-3.411 3.045c-0.234 0.208-0.255 0.566-0.046 0.8 0.068 0.076 0.155 0.132 0.252 0.163l4.354 1.39c0.298 0.096 0.617-0.068 0.713-0.366 0.030-0.094 0.035-0.194 0.015-0.291l-0.348-1.635c5.035-2.123 8.304-7.060 8.292-12.524zM15.549 13.034c0.313 0 0.567 0.254 0.567 0.567s-0.254 0.567-0.567 0.567c-0.313 0-0.567-0.254-0.567-0.567s0.254-0.567 0.567-0.567zM17.416 26.247l1.941-1.732 0.536 2.525-2.477-0.793z"></path>
<path fill="#4d5ae5" d="M14.982 2.831v1.134c0 0.313 0.254 0.567 0.567 0.567s0.567-0.254 0.567-0.567v-1.134c0-0.313-0.254-0.567-0.567-0.567s-0.567 0.254-0.567 0.567z"></path>
<path fill="#4d5ae5" d="M4.779 13.034c-0.313 0-0.567 0.254-0.567 0.567s0.254 0.567 0.567 0.567h1.134c0.313 0 0.567-0.254 0.567-0.567s-0.254-0.567-0.567-0.567h-1.134z"></path>
<path fill="#4d5ae5" d="M26.318 14.168c0.313 0 0.567-0.254 0.567-0.567s-0.254-0.567-0.567-0.567h-1.134c-0.313 0-0.567 0.254-0.567 0.567s0.254 0.567 0.567 0.567h1.134z"></path>
</svg>
<svg id="icon-diagram" width="32" height="32" viewBox="0 0 32 32" x="144" y="0">
<path fill="#4d5ae5" d="M15.045 14.857h0.948v4.264h-0.948v-4.264z"></path>
<path fill="#4d5ae5" d="M18.835 16.753h0.948v2.369h-0.948v-2.369z"></path>
<path fill="#4d5ae5" d="M11.254 18.174h0.948v0.948h-0.948v-0.948z"></path>
<path fill="#4d5ae5" d="M8.411 17.7h0.948v1.421h-0.948v-1.421z"></path>
<path fill="#2e2f42" d="M3.199 26.703h22.744c0.785 0 1.422-0.636 1.422-1.421v-1.895c0-0.785-0.637-1.421-1.422-1.421h-0.474v-11.816l2.691-2.55c0.625 0.308 1.381 0.121 1.79-0.443s0.352-1.341-0.136-1.839-1.262-0.572-1.835-0.176c-0.573 0.397-0.776 1.148-0.482 1.78l-2.028 1.922v-1.093c0-0.785-0.636-1.421-1.421-1.421h-18.953c-0.785 0-1.421 0.636-1.421 1.421v14.215h-0.474c-0.785 0-1.421 0.636-1.421 1.421v1.895c0 0.785 0.636 1.421 1.421 1.421zM28.786 5.855c0.262 0 0.474 0.212 0.474 0.474s-0.212 0.474-0.474 0.474c-0.262 0-0.474-0.212-0.474-0.474s0.212-0.474 0.474-0.474zM4.621 7.75c0-0.262 0.212-0.474 0.474-0.474h18.953c0.262 0 0.474 0.212 0.474 0.474v1.99l-0.948 0.9v-1.943c0-0.262-0.212-0.474-0.474-0.474h-17.058c-0.262 0-0.474 0.212-0.474 0.474v11.846c0 0.262 0.212 0.474 0.474 0.474h17.058c0.262 0 0.474-0.212 0.474-0.474v-8.599l0.948-0.898v10.919h-19.901v-14.215zM8.885 13.91c-0.641-0.002-1.204 0.425-1.375 1.043s0.093 1.273 0.645 1.601c0.551 0.327 1.253 0.245 1.714-0.201l1.647 0.826c0.191 0.096 0.423 0.051 0.566-0.109l3.501-3.939 3.442 2.579c0.185 0.138 0.442 0.124 0.61-0.035l2.991-2.833v7.228h-16.11v-10.898h16.11v2.365l-3.352 3.175-3.471-2.602c-0.197-0.148-0.475-0.12-0.638 0.064l-3.549 3.993-1.327-0.664c0.010-0.057 0.016-0.114 0.018-0.172 0-0.785-0.636-1.421-1.421-1.421zM9.359 15.331c0 0.262-0.212 0.474-0.474 0.474s-0.474-0.212-0.474-0.474c0-0.262 0.212-0.474 0.474-0.474s0.474 0.212 0.474 0.474zM12.202 22.913h4.738v0.474c0 0.262-0.212 0.474-0.474 0.474h-3.791c-0.262 0-0.474-0.212-0.474-0.474v-0.474zM2.725 23.386c0-0.262 0.212-0.474 0.474-0.474h8.055v0.474c0 0.785 0.636 1.421 1.421 1.421h3.791c0.785 0 1.421-0.636 1.421-1.421v-0.474h8.055c0.262 0 0.474 0.212 0.474 0.474v1.895c0 0.262-0.212 0.474-0.474 0.474h-22.744c-0.262 0-0.474-0.212-0.474-0.474v-1.895z"></path>
</svg>
<svg id="icon-facebook" width="32" height="32" viewBox="0 0 32 32" x="192" y="0">
<path fill="#f4f4fd" d="M21.329 5.313h2.921v-5.088c-0.504-0.069-2.237-0.225-4.256-0.225-4.212 0-7.097 2.649-7.097 7.519v4.481h-4.648v5.688h4.648v14.312h5.699v-14.311h4.46l0.708-5.688h-5.169v-3.919c0.001-1.644 0.444-2.769 2.735-2.769z"></path>
</svg>
<svg id="icon-instagram" width="32" height="32" viewBox="0 0 32 32" x="240" y="0">
<path fill="#f4f4fd" d="M31.969 9.408c-0.075-1.7-0.35-2.869-0.744-3.882-0.406-1.075-1.031-2.038-1.85-2.838-0.8-0.813-1.769-1.444-2.832-1.844-1.019-0.394-2.182-0.669-3.882-0.744-1.713-0.081-2.257-0.1-6.601-0.1s-4.888 0.019-6.595 0.094c-1.7 0.075-2.869 0.35-3.882 0.744-1.075 0.406-2.038 1.031-2.838 1.85-0.813 0.8-1.444 1.769-1.844 2.832-0.394 1.019-0.669 2.182-0.744 3.882-0.081 1.713-0.1 2.257-0.1 6.601s0.019 4.888 0.094 6.595c0.075 1.7 0.35 2.869 0.744 3.882 0.406 1.075 1.038 2.038 1.85 2.838 0.8 0.813 1.769 1.444 2.832 1.844 1.019 0.394 2.182 0.669 3.882 0.744 1.706 0.075 2.25 0.094 6.595 0.094s4.888-0.019 6.595-0.094c1.7-0.075 2.869-0.35 3.882-0.744 2.151-0.831 3.851-2.532 4.682-4.682 0.394-1.019 0.669-2.182 0.744-3.882 0.075-1.707 0.094-2.25 0.094-6.595s-0.006-4.888-0.081-6.595zM29.087 22.473c-0.069 1.563-0.331 2.407-0.55 2.969-0.538 1.394-1.644 2.5-3.038 3.038-0.563 0.219-1.413 0.481-2.969 0.55-1.688 0.075-2.194 0.094-6.464 0.094s-4.782-0.019-6.464-0.094c-1.563-0.069-2.407-0.331-2.969-0.55-0.694-0.256-1.325-0.663-1.838-1.194-0.531-0.519-0.938-1.144-1.194-1.838-0.219-0.563-0.481-1.413-0.55-2.969-0.075-1.688-0.094-2.194-0.094-6.464s0.019-4.782 0.094-6.464c0.069-1.563 0.331-2.407 0.55-2.969 0.256-0.694 0.663-1.325 1.2-1.838 0.519-0.531 1.144-0.938 1.838-1.194 0.563-0.219 1.413-0.481 2.969-0.55 1.688-0.075 2.194-0.094 6.464-0.094 4.276 0 4.782 0.019 6.464 0.094 1.563 0.069 2.407 0.331 2.969 0.55 0.694 0.256 1.325 0.662 1.838 1.194 0.531 0.519 0.938 1.144 1.194 1.838 0.219 0.563 0.481 1.413 0.55 2.969 0.075 1.688 0.094 2.194 0.094 6.464s-0.019 4.77-0.094 6.458z"></path>
<path fill="#f4f4fd" d="M16.059 7.783c-4.538 0-8.22 3.682-8.22 8.22s3.682 8.22 8.22 8.22c4.539 0 8.22-3.682 8.22-8.22s-3.682-8.22-8.22-8.22zM16.059 21.335c-2.944 0-5.332-2.388-5.332-5.332s2.388-5.332 5.332-5.332c2.944 0 5.332 2.388 5.332 5.332s-2.388 5.332-5.332 5.332z"></path>
<path fill="#f4f4fd" d="M26.524 7.458c0 1.060-0.859 1.919-1.919 1.919s-1.919-0.859-1.919-1.919c0-1.060 0.859-1.919 1.919-1.919s1.919 0.859 1.919 1.919z"></path>
</svg>
<svg id="icon-linkedin" width="32" height="32" viewBox="0 0 32 32" x="288" y="0">
<path fill="#f4f4fd" d="M31.992 32v-0.001h0.008v-11.736c0-5.741-1.236-10.164-7.948-10.164-3.227 0-5.392 1.771-6.276 3.449h-0.093v-2.913h-6.364v21.364h6.627v-10.579c0-2.785 0.528-5.479 3.977-5.479 3.399 0 3.449 3.179 3.449 5.657v10.401h6.62z"></path>
<path fill="#f4f4fd" d="M0.528 10.636h6.635v21.364h-6.635v-21.364z"></path>
<path fill="#f4f4fd" d="M3.843-0c-2.121 0-3.843 1.721-3.843 3.843s1.721 3.879 3.843 3.879c2.121 0 3.843-1.757 3.843-3.879-0.001-2.121-1.723-3.843-3.843-3.843v0z"></path>
</svg>
<svg id="icon-twitter" width="32" height="32" viewBox="0 0 32 32" x="336" y="0">
<path fill="#f4f4fd" d="M32 6.078c-1.19 0.522-2.458 0.868-3.78 1.036 1.36-0.812 2.398-2.088 2.886-3.626-1.268 0.756-2.668 1.29-4.16 1.588-1.204-1.282-2.92-2.076-4.792-2.076-3.632 0-6.556 2.948-6.556 6.562 0 0.52 0.044 1.020 0.152 1.496-5.454-0.266-10.28-2.88-13.522-6.862-0.566 0.982-0.898 2.106-0.898 3.316 0 2.272 1.17 4.286 2.914 5.452-1.054-0.020-2.088-0.326-2.964-0.808 0 0.020 0 0.046 0 0.072 0 3.188 2.274 5.836 5.256 6.446-0.534 0.146-1.116 0.216-1.72 0.216-0.42 0-0.844-0.024-1.242-0.112 0.85 2.598 3.262 4.508 6.13 4.57-2.232 1.746-5.066 2.798-8.134 2.798-0.538 0-1.054-0.024-1.57-0.090 2.906 1.874 6.35 2.944 10.064 2.944 12.072 0 18.672-10 18.672-18.668 0-0.29-0.010-0.57-0.024-0.848 1.302-0.924 2.396-2.078 3.288-3.406z"></path>
</svg>
</svg>
