<?xml version="1.0" encoding="utf-8"?>
<!-- Generated by IcoMoon.io -->
<svg version="1.1" xmlns="http://www.w3.org/2000/svg" xmlns:xlink="http://www.w3.org/1999/xlink" width="752" height="32" viewBox="0 0 752 32">
<svg id="icon-antenna" width="30" height="32" viewBox="0 0 30 32" x="0" y="0">
<path fill="#2e2f42" d="M28.243 19.642l-7.505-7.56 0.833-4.103c0.215 0.084 0.443 0.128 0.674 0.129h0.006c1.060 0.013 1.929-0.836 1.942-1.896s-0.836-1.929-1.896-1.942c-1.060-0.013-1.929 0.836-1.942 1.896-0.003 0.227 0.035 0.452 0.111 0.666l-4.409 0.538-7.192-7.229c-0.088-0.090-0.209-0.141-0.335-0.142-0.124 0.001-0.244 0.050-0.332 0.138l-1.345 1.337c-0.185 0.185-0.185 0.485 0 0.67l0.723 0.734c-2.803 5.154-1.892 11.536 2.24 15.7 0.038 0.036 0.082 0.066 0.13 0.087-0.030 0.16-0.045 0.323-0.046 0.486v5.499h-5.689c-1.308 0.002-2.369 1.062-2.37 2.37v0.948c0 0.262 0.212 0.474 0.474 0.474h21.807c0.262 0 0.474-0.212 0.474-0.474v-0.948c-0.002-1.308-1.062-2.369-2.37-2.37h-5.689v-2.437c0.891 0.187 1.799 0.282 2.71 0.284 2.185-0.002 4.335-0.547 6.258-1.585l0.727 0.732c0.088 0.090 0.209 0.141 0.335 0.142 0.124-0.001 0.244-0.050 0.332-0.138l1.345-1.337c0.185-0.185 0.185-0.485 0-0.67zM21.582 5.54c0.371-0.369 0.972-0.368 1.341 0.004s0.368 0.972-0.004 1.341c-0.178 0.177-0.418 0.276-0.669 0.276h-0.003c-0.524-0.003-0.946-0.429-0.943-0.953 0.001-0.251 0.102-0.491 0.28-0.667h-0.002zM20.466 8.656l-0.532 2.618-1.045-1.051 1.577-1.567zM19.928 7.854l-1.707 1.697-1.32-1.327 3.027-0.369zM22.226 25.6c0.785 0 1.422 0.637 1.422 1.422v0.474h-20.859v-0.474c0-0.785 0.637-1.422 1.422-1.422h18.015zM15.589 23.704v0.948h-4.741v-0.948h4.741zM10.848 22.756v-3.603c0-1.15 1.063-2.086 2.37-2.086s2.37 0.936 2.37 2.086v3.603h-4.741zM16.537 21.248v-2.095c0-1.673-1.489-3.034-3.319-3.034-1.183-0.018-2.29 0.584-2.917 1.588-3.607-3.799-4.419-9.462-2.025-14.122l16.535 16.63c-2.553 1.299-5.48 1.665-8.274 1.034zM26.572 20.64l-18.717-18.827 0.671-0.668 7.053 7.093c0.003 0 0.005 0.006 0.009 0.009l11.657 11.726-0.673 0.668z"></path>
<path fill="#4d5ae5" d="M13.223 18.015h-0.004c-0.785-0.001-1.423 0.635-1.424 1.42s0.635 1.423 1.42 1.424h0.004c0.785 0.001 1.423-0.635 1.424-1.42s-0.635-1.423-1.42-1.424zM13.555 19.773c-0.089 0.089-0.21 0.138-0.336 0.138-0.262-0.001-0.473-0.215-0.472-0.477 0.001-0.125 0.051-0.245 0.14-0.334s0.207-0.137 0.332-0.138c0.262 0.001 0.473 0.215 0.472 0.477-0.001 0.125-0.051 0.245-0.14 0.334h0.004z"></path>
</svg>
<svg id="icon-astronaut" width="33" height="32" viewBox="0 0 33 32" x="48" y="0">
<path fill="#4d5ae5" d="M31.512 4.196c-0.058-0.179-0.213-0.309-0.399-0.336l-1.772-0.258-0.793-1.606c-0.166-0.338-0.721-0.338-0.887 0l-0.793 1.606-1.772 0.258c-0.186 0.027-0.341 0.157-0.4 0.336-0.058 0.179-0.010 0.376 0.125 0.507l1.283 1.25-0.303 1.765c-0.032 0.186 0.045 0.373 0.196 0.484 0.154 0.112 0.355 0.126 0.521 0.038l1.585-0.834 1.585 0.834c0.072 0.038 0.152 0.057 0.231 0.057 0.102 0 0.205-0.032 0.291-0.094 0.152-0.111 0.229-0.298 0.196-0.484l-0.303-1.765 1.283-1.25c0.134-0.132 0.183-0.328 0.125-0.507zM29.228 5.427c-0.116 0.113-0.17 0.278-0.142 0.438l0.177 1.033-0.928-0.488c-0.072-0.038-0.151-0.057-0.231-0.057s-0.158 0.019-0.231 0.057l-0.928 0.488 0.177-1.033c0.028-0.16-0.026-0.324-0.142-0.438l-0.751-0.732 1.038-0.151c0.161-0.023 0.3-0.125 0.372-0.271l0.464-0.94 0.464 0.94c0.072 0.146 0.211 0.247 0.372 0.271l1.038 0.151-0.75 0.732z"></path>
<path fill="#4d5ae5" d="M26.095 19.035h-0.989v0.989h0.989v-0.989z"></path>
<path fill="#4d5ae5" d="M26.095 21.014h-0.989v0.989h0.989v-0.989z"></path>
<path fill="#4d5ae5" d="M27.084 20.024h-0.989v0.989h0.989v-0.989z"></path>
<path fill="#4d5ae5" d="M25.105 20.024h-0.989v0.989h0.989v-0.989z"></path>
<path fill="#4d5ae5" d="M22.632 24.477h-0.989v0.989h0.989v-0.989z"></path>
<path fill="#4d5ae5" d="M22.632 26.455h-0.989v0.989h0.989v-0.989z"></path>
<path fill="#4d5ae5" d="M23.621 25.466h-0.989v0.989h0.989v-0.989z"></path>
<path fill="#4d5ae5" d="M21.643 25.466h-0.989v0.989h0.989v-0.989z"></path>
<path fill="#4d5ae5" d="M16.696 22.498h-0.989v0.989h0.989v-0.989z"></path>
<path fill="#4d5ae5" d="M16.696 24.477h-0.989v0.989h0.989v-0.989z"></path>
<path fill="#4d5ae5" d="M17.685 23.487h-0.989v0.989h0.989v-0.989z"></path>
<path fill="#4d5ae5" d="M15.706 23.487h-0.989v0.989h0.989v-0.989z"></path>
<path fill="#4d5ae5" d="M7.296 5.678h-0.989v0.989h0.989v-0.989z"></path>
<path fill="#4d5ae5" d="M7.296 7.657h-0.989v0.989h0.989v-0.989z"></path>
<path fill="#4d5ae5" d="M8.286 6.668h-0.989v0.989h0.989v-0.989z"></path>
<path fill="#4d5ae5" d="M6.307 6.668h-0.989v0.989h0.989v-0.989z"></path>
<path fill="#2e2f42" d="M24.779 13.133c-0.267-0.36-0.658-0.591-1.102-0.653-0.446-0.063-0.887 0.054-1.243 0.326l-1.162 0.89-1.76 1.314-1.259-0.502c2.246-1.008 3.816-3.254 3.816-5.862 0-3.546-2.896-6.431-6.457-6.431s-6.457 2.885-6.457 6.431c0 1.285 0.384 2.48 1.039 3.486l-2.564-0.022c-0.001 0-0.003 0-0.004 0-0.008 0-0.014 0.004-0.022 0.005-0.049 0.002-0.097 0.012-0.144 0.029-0.012 0.005-0.024 0.007-0.036 0.012-0.006 0.002-0.012 0.003-0.018 0.006l-2.999 1.481c-0.001 0-0.001 0-0.001 0l-1.756 0.845c-0.019 0.008-0.039 0.020-0.058 0.033-0.7 0.466-0.938 1.381-0.555 2.129 0.204 0.398 0.552 0.691 0.979 0.825 0.165 0.051 0.333 0.077 0.5 0.077 0.269 0 0.535-0.066 0.779-0.196l1.287-0.685 2.1-1.084 1.258-0.007-5.047 5.023c-0 0-0.001 0-0.002 0.001l-1.242 1.237c-0.293 0.292-0.455 0.679-0.455 1.092s0.161 0.801 0.455 1.093c0.301 0.3 0.698 0.45 1.094 0.45s0.792-0.15 1.095-0.45l1.219-1.214 1.615-1.206 0.836 0.832-1.634 1.627c-0 0.001-0.001 0.001-0.001 0.001l-1.242 1.237c-0.293 0.292-0.455 0.679-0.455 1.092s0.161 0.801 0.455 1.093c0.301 0.3 0.698 0.45 1.094 0.45s0.793-0.15 1.095-0.45l3.229-3.215c0.001-0.001 0.001-0.001 0.001-0.002l0.937-0.928-0.003-0.003c0.006-0.006 0.014-0.008 0.020-0.014l4.792-5.248 3.219 0.458c0.023 0.003 0.047 0.005 0.070 0.005 0.060 0 0.118-0.014 0.174-0.036 0.016-0.006 0.031-0.014 0.046-0.022 0.018-0.009 0.037-0.014 0.053-0.025l2.98-1.979c0.011-0.007 0.017-0.019 0.027-0.027 0.012-0.009 0.027-0.013 0.038-0.024l1.179-1.105c0.614-0.575 0.698-1.517 0.197-2.191zM3.831 16.482c-0.161 0.086-0.343 0.103-0.518 0.048-0.173-0.054-0.314-0.172-0.396-0.332-0.149-0.291-0.063-0.645 0.199-0.837l1.218-0.586 0.417 1.217-0.92 0.489zM7.075 14.787l-1.436 0.742-0.407-1.19 1.88-0.928-0.037 1.376zM21.080 8.646c0 0.852-0.203 1.655-0.556 2.374l-3.878-1.762c-0.041-0.532-0.317-0.997-0.731-1.287l1.358-4.508c2.205 0.702 3.807 2.759 3.807 5.183zM10.145 8.646c0-3 2.453-5.442 5.467-5.442 0.234 0 0.464 0.020 0.691 0.048l-1.328 4.409c-0.018-0-0.035-0.005-0.053-0.005-0.958 0-1.737 0.777-1.737 1.731s0.779 1.731 1.737 1.731c0.644 0 1.201-0.356 1.501-0.876l3.583 1.628c-0.997 1.342-2.592 2.217-4.393 2.217-3.015 0-5.467-2.441-5.467-5.442zM15.67 9.389c0 0.409-0.335 0.742-0.748 0.742s-0.747-0.333-0.747-0.742c0-0.409 0.335-0.742 0.747-0.742s0.748 0.333 0.748 0.742zM4.141 23.324c-0.219 0.217-0.574 0.217-0.792 0-0.105-0.105-0.163-0.244-0.163-0.392s0.058-0.286 0.163-0.391l0.892-0.889 0.79 0.786-0.889 0.885zM7.122 26.787c-0.219 0.217-0.574 0.218-0.793 0-0.105-0.105-0.163-0.244-0.163-0.392s0.058-0.286 0.163-0.391l0.893-0.889 0.79 0.786-0.89 0.886zM10.352 23.569c-0.001 0-0.001 0-0.002 0.001l-1.637 1.632-0.79-0.786 1.635-1.628c0 0 0 0 0-0s0.001-0 0.001-0.001c0.037-0.037 0.060-0.082 0.083-0.126 0.006-0.013 0.019-0.024 0.024-0.037 0.015-0.038 0.018-0.079 0.024-0.119 0.003-0.023 0.013-0.044 0.013-0.067 0-0.033-0.012-0.065-0.019-0.098-0.006-0.030-0.006-0.060-0.017-0.089-0.019-0.047-0.051-0.088-0.085-0.128-0.009-0.011-0.013-0.025-0.023-0.035 0 0 0 0-0.001 0s-0.001-0.002-0.001-0.002l-1.49-1.484c-0.016-0.016-0.036-0.022-0.054-0.036-0.026-0.020-0.051-0.039-0.081-0.053-0.028-0.014-0.057-0.022-0.087-0.030-0.032-0.009-0.062-0.016-0.096-0.018-0.030-0.002-0.058 0.001-0.089 0.004-0.033 0.004-0.064 0.008-0.096 0.019-0.031 0.010-0.059 0.025-0.088 0.042-0.018 0.010-0.039 0.014-0.056 0.027l-1.645 1.228-0.836-0.832 2.225-2.213 4.045 3.978-0.86 0.852zM16.676 17.061c-0.014-0.002-0.028 0.003-0.042 0.003-0.036-0.002-0.071 0-0.107 0.006-0.028 0.005-0.055 0.010-0.082 0.020-0.032 0.011-0.060 0.026-0.090 0.044-0.028 0.017-0.053 0.035-0.077 0.057-0.012 0.010-0.026 0.015-0.037 0.027l-4.358 4.773-4.014-3.948 2.628-2.614c0.193-0.193 0.194-0.506 0.002-0.7-0.097-0.097-0.226-0.145-0.354-0.145v-0l-2.058 0.012 0.026-1.491 2.879 0.025c1.173 1.2 2.81 1.949 4.62 1.949 0.406 0 0.801-0.042 1.187-0.114 0.037 0.030 0.074 0.060 0.12 0.079l2.235 0.89 0.141 0.703 0.165 0.821-2.785-0.396zM20.425 17.226l-0.29-1.445 1.342-1.002 0.878 1.165-1.929 1.281zM23.906 14.601l-0.777 0.728-0.864-1.147 0.771-0.591c0.144-0.111 0.326-0.156 0.504-0.133 0.179 0.025 0.337 0.119 0.445 0.264 0.201 0.271 0.167 0.648-0.079 0.879z"></path>
<path fill="#2e2f42" d="M14.472 17.2l-1.988-1.979c-0.192-0.192-0.505-0.192-0.698 0l-1.987 1.979c-0.093 0.093-0.145 0.219-0.145 0.351s0.052 0.258 0.145 0.351l1.987 1.979c0.096 0.096 0.223 0.144 0.349 0.144s0.253-0.048 0.349-0.144l1.988-1.979c0.093-0.093 0.146-0.219 0.146-0.351s-0.052-0.258-0.146-0.351zM12.135 18.832l-1.286-1.281 1.286-1.281 1.287 1.281-1.287 1.281z"></path>
<path fill="#2e2f42" d="M17.776 4.703l-0.239 0.961c0.066 0.016 1.612 0.419 1.612 1.993h0.989c-0-1.871-1.545-2.751-2.362-2.954z"></path>
<path fill="#2e2f42" d="M20.138 8.646h-0.989v0.989h0.989v-0.989z"></path>
</svg>
<svg id="icon-clock" width="31" height="32" viewBox="0 0 31 32" x="96" y="0">
<path fill="#2e2f42" d="M29.153 13.601c-0.002-7.513-6.094-13.603-13.607-13.601s-13.603 6.094-13.601 13.607c0.001 5.918 3.828 11.157 9.466 12.957 0.054 0.017 0.11 0.026 0.166 0.025 0.107-0 0.212-0.029 0.304-0.083 0.12-0.071 0.21-0.184 0.252-0.317l3.436-10.889c0.939-0.005 1.697-0.77 1.692-1.709s-0.77-1.697-1.709-1.692c-0.253 0.001-0.502 0.059-0.729 0.17l-4.539-4.539c-0.225-0.217-0.584-0.211-0.801 0.014-0.212 0.22-0.212 0.568 0 0.788l4.536 4.541c-0.348 0.71-0.149 1.568 0.477 2.053l-3.273 10.376c-6.469-2.383-9.782-9.559-7.399-16.028s9.559-9.782 16.028-7.399c6.469 2.383 9.782 9.559 7.399 16.028-1.164 3.161-3.556 5.717-6.633 7.087l-0.354-1.666c-0.065-0.306-0.366-0.502-0.672-0.437-0.097 0.021-0.186 0.066-0.26 0.132l-3.411 3.045c-0.234 0.208-0.255 0.566-0.046 0.8 0.068 0.076 0.155 0.132 0.252 0.163l4.354 1.39c0.298 0.096 0.617-0.068 0.713-0.366 0.030-0.094 0.035-0.194 0.015-0.291l-0.348-1.635c5.035-2.123 8.304-7.060 8.292-12.524zM15.549 13.034c0.313 0 0.567 0.254 0.567 0.567s-0.254 0.567-0.567 0.567c-0.313 0-0.567-0.254-0.567-0.567s0.254-0.567 0.567-0.567zM17.416 26.247l1.941-1.732 0.536 2.525-2.477-0.793z"></path>
<path fill="#4d5ae5" d="M14.982 2.831v1.134c0 0.313 0.254 0.567 0.567 0.567s0.567-0.254 0.567-0.567v-1.134c0-0.313-0.254-0.567-0.567-0.567s-0.567 0.254-0.567 0.567z"></path>
<path fill="#4d5ae5" d="M4.779 13.034c-0.313 0-0.567 0.254-0.567 0.567s0.254 0.567 0.567 0.567h1.134c0.313 0 0.567-0.254 0.567-0.567s-0.254-0.567-0.567-0.567h-1.134z"></path>
<path fill="#4d5ae5" d="M26.318 14.168c0.313 0 0.567-0.254 0.567-0.567s-0.254-0.567-0.567-0.567h-1.134c-0.313 0-0.567 0.254-0.567 0.567s0.254 0.567 0.567 0.567h1.134z"></path>
</svg>
<svg id="icon-diagram" width="35" height="32" viewBox="0 0 35 32" x="144" y="0">
<path fill="#4d5ae5" d="M16.665 14.734h1.050v4.724h-1.050v-4.724z"></path>
<path fill="#4d5ae5" d="M20.864 16.834h1.050v2.624h-1.050v-2.624z"></path>
<path fill="#4d5ae5" d="M12.466 18.408h1.050v1.050h-1.050v-1.050z"></path>
<path fill="#4d5ae5" d="M9.317 17.883h1.050v1.575h-1.050v-1.575z"></path>
<path fill="#2e2f42" d="M3.544 27.856h25.193c0.87 0 1.575-0.705 1.575-1.575v-2.099c0-0.87-0.705-1.575-1.575-1.575h-0.525v-13.089l2.981-2.824c0.692 0.341 1.529 0.134 1.982-0.491s0.39-1.485-0.15-2.037-1.398-0.634-2.033-0.195c-0.635 0.439-0.86 1.272-0.534 1.971l-2.246 2.129v-1.211c0-0.87-0.705-1.575-1.575-1.575h-20.994c-0.87 0-1.575 0.705-1.575 1.575v15.746h-0.525c-0.87 0-1.575 0.705-1.575 1.575v2.099c0 0.87 0.705 1.575 1.575 1.575zM31.886 4.762c0.29 0 0.525 0.235 0.525 0.525s-0.235 0.525-0.525 0.525c-0.29 0-0.525-0.235-0.525-0.525s0.235-0.525 0.525-0.525zM5.118 6.862c0-0.29 0.235-0.525 0.525-0.525h20.994c0.29 0 0.525 0.235 0.525 0.525v2.204l-1.050 0.997v-2.152c0-0.29-0.235-0.525-0.525-0.525h-18.895c-0.29 0-0.525 0.235-0.525 0.525v13.121c0 0.29 0.235 0.525 0.525 0.525h18.895c0.29 0 0.525-0.235 0.525-0.525v-9.525l1.050-0.995v12.095h-22.044v-15.746zM9.842 13.685c-0.71-0.002-1.334 0.471-1.522 1.156s0.104 1.411 0.714 1.773c0.61 0.362 1.388 0.271 1.899-0.222l1.824 0.915c0.212 0.106 0.469 0.056 0.627-0.121l3.878-4.363 3.812 2.857c0.204 0.153 0.49 0.137 0.676-0.039l3.313-3.139v8.006h-17.845v-12.072h17.845v2.619l-3.713 3.517-3.844-2.882c-0.218-0.164-0.526-0.133-0.707 0.071l-3.932 4.424-1.47-0.735c0.011-0.063 0.017-0.127 0.020-0.19 0-0.87-0.705-1.575-1.575-1.575zM10.367 15.259c0 0.29-0.235 0.525-0.525 0.525s-0.525-0.235-0.525-0.525c0-0.29 0.235-0.525 0.525-0.525s0.525 0.235 0.525 0.525zM13.516 23.657h5.249v0.525c0 0.29-0.235 0.525-0.525 0.525h-4.199c-0.29 0-0.525-0.235-0.525-0.525v-0.525zM3.019 24.182c0-0.29 0.235-0.525 0.525-0.525h8.923v0.525c0 0.87 0.705 1.575 1.575 1.575h4.199c0.869 0 1.575-0.705 1.575-1.575v-0.525h8.922c0.29 0 0.525 0.235 0.525 0.525v2.099c0 0.29-0.235 0.525-0.525 0.525h-25.193c-0.29 0-0.525-0.235-0.525-0.525v-2.099z"></path>
</svg>
<svg id="icon-facebook" width="32" height="32" viewBox="0 0 32 32" x="192" y="0">
<path d="M21.329 5.313h2.921v-5.088c-0.504-0.069-2.237-0.225-4.256-0.225-4.212 0-7.097 2.649-7.097 7.519v4.481h-4.648v5.688h4.648v14.312h5.699v-14.311h4.46l0.708-5.688h-5.169v-3.919c0.001-1.644 0.444-2.769 2.735-2.769z"></path>
</svg>
<svg id="icon-instagram" width="32" height="32" viewBox="0 0 32 32" x="240" y="0">
<path d="M31.969 9.408c-0.075-1.7-0.35-2.869-0.744-3.882-0.406-1.075-1.031-2.038-1.85-2.838-0.8-0.813-1.769-1.444-2.832-1.844-1.019-0.394-2.182-0.669-3.882-0.744-1.713-0.081-2.257-0.1-6.601-0.1s-4.888 0.019-6.595 0.094c-1.7 0.075-2.869 0.35-3.882 0.744-1.075 0.406-2.038 1.031-2.838 1.85-0.813 0.8-1.444 1.769-1.844 2.832-0.394 1.019-0.669 2.182-0.744 3.882-0.081 1.713-0.1 2.257-0.1 6.601s0.019 4.888 0.094 6.595c0.075 1.7 0.35 2.869 0.744 3.882 0.406 1.075 1.038 2.038 1.85 2.838 0.8 0.813 1.769 1.444 2.832 1.844 1.019 0.394 2.182 0.669 3.882 0.744 1.706 0.075 2.25 0.094 6.595 0.094s4.888-0.019 6.595-0.094c1.7-0.075 2.869-0.35 3.882-0.744 2.151-0.831 3.851-2.532 4.682-4.682 0.394-1.019 0.669-2.182 0.744-3.882 0.075-1.707 0.094-2.25 0.094-6.595s-0.006-4.888-0.081-6.595zM29.087 22.473c-0.069 1.563-0.331 2.407-0.55 2.969-0.538 1.394-1.644 2.5-3.038 3.038-0.563 0.219-1.413 0.481-2.969 0.55-1.688 0.075-2.194 0.094-6.464 0.094s-4.782-0.019-6.464-0.094c-1.563-0.069-2.407-0.331-2.969-0.55-0.694-0.256-1.325-0.663-1.838-1.194-0.531-0.519-0.938-1.144-1.194-1.838-0.219-0.563-0.481-1.413-0.55-2.969-0.075-1.688-0.094-2.194-0.094-6.464s0.019-4.782 0.094-6.464c0.069-1.563 0.331-2.407 0.55-2.969 0.256-0.694 0.663-1.325 1.2-1.838 0.519-0.531 1.144-0.938 1.838-1.194 0.563-0.219 1.413-0.481 2.969-0.55 1.688-0.075 2.194-0.094 6.464-0.094 4.276 0 4.782 0.019 6.464 0.094 1.563 0.069 2.407 0.331 2.969 0.55 0.694 0.256 1.325 0.662 1.838 1.194 0.531 0.519 0.938 1.144 1.194 1.838 0.219 0.563 0.481 1.413 0.55 2.969 0.075 1.688 0.094 2.194 0.094 6.464s-0.019 4.77-0.094 6.458z"></path>
<path d="M16.059 7.783c-4.538 0-8.22 3.682-8.22 8.22s3.682 8.22 8.22 8.22c4.539 0 8.22-3.682 8.22-8.22s-3.682-8.22-8.22-8.22zM16.059 21.335c-2.944 0-5.332-2.388-5.332-5.332s2.388-5.332 5.332-5.332c2.944 0 5.332 2.388 5.332 5.332s-2.388 5.332-5.332 5.332z"></path>
<path d="M26.524 7.458c0 1.060-0.859 1.919-1.919 1.919s-1.919-0.859-1.919-1.919c0-1.060 0.859-1.919 1.919-1.919s1.919 0.859 1.919 1.919z"></path>
</svg>
<svg id="icon-linkedin" width="32" height="32" viewBox="0 0 32 32" x="288" y="0">
<path d="M31.992 32v-0.001h0.008v-11.736c0-5.741-1.236-10.164-7.948-10.164-3.227 0-5.392 1.771-6.276 3.449h-0.093v-2.913h-6.364v21.364h6.627v-10.579c0-2.785 0.528-5.479 3.977-5.479 3.399 0 3.449 3.179 3.449 5.657v10.401h6.62z"></path>
<path d="M0.528 10.636h6.635v21.364h-6.635v-21.364z"></path>
<path d="M3.843-0c-2.121 0-3.843 1.721-3.843 3.843s1.721 3.879 3.843 3.879c2.121 0 3.843-1.757 3.843-3.879-0.001-2.121-1.723-3.843-3.843-3.843v0z"></path>
</svg>
<svg id="icon-twitter" width="32" height="32" viewBox="0 0 32 32" x="336" y="0">
<path d="M32 6.078c-1.19 0.522-2.458 0.868-3.78 1.036 1.36-0.812 2.398-2.088 2.886-3.626-1.268 0.756-2.668 1.29-4.16 1.588-1.204-1.282-2.92-2.076-4.792-2.076-3.632 0-6.556 2.948-6.556 6.562 0 0.52 0.044 1.020 0.152 1.496-5.454-0.266-10.28-2.88-13.522-6.862-0.566 0.982-0.898 2.106-0.898 3.316 0 2.272 1.17 4.286 2.914 5.452-1.054-0.020-2.088-0.326-2.964-0.808 0 0.020 0 0.046 0 0.072 0 3.188 2.274 5.836 5.256 6.446-0.534 0.146-1.116 0.216-1.72 0.216-0.42 0-0.844-0.024-1.242-0.112 0.85 2.598 3.262 4.508 6.13 4.57-2.232 1.746-5.066 2.798-8.134 2.798-0.538 0-1.054-0.024-1.57-0.090 2.906 1.874 6.35 2.944 10.064 2.944 12.072 0 18.672-10 18.672-18.668 0-0.29-0.010-0.57-0.024-0.848 1.302-0.924 2.396-2.078 3.288-3.406z"></path>
</svg>
<svg id="icon-send" width="38" height="32" viewBox="0 0 38 32" x="384" y="0">
<path d="M38.4 0l-38.4 18 12.272 3.788 18.928-14.788-14.397 16.186 0.012 0.004-0.014-0.004v8.814l6.882-6.691 8.718 2.691 6-28z"></path>
</svg>
<svg id="icon-cross" width="32" height="32" viewBox="0 0 32 32" x="432" y="0">
<path d="M32 3.223l-3.223-3.223-12.777 12.777-12.777-12.777-3.223 3.223 12.777 12.777-12.777 12.777 3.223 3.223 12.777-12.777 12.777 12.777 3.223-3.223-12.777-12.777 12.777-12.777z"></path>
</svg>
<svg id="icon-person" width="32" height="32" viewBox="0 0 32 32" x="480" y="0">
<path d="M16 16c2.947 0 5.333-2.387 5.333-5.333s-2.387-5.333-5.333-5.333c-2.947 0-5.333 2.387-5.333 5.333s2.387 5.333 5.333 5.333zM16 18.667c-3.56 0-10.667 1.787-10.667 5.333v1.333c0 0.733 0.6 1.333 1.333 1.333h18.667c0.733 0 1.333-0.6 1.333-1.333v-1.333c0-3.547-7.107-5.333-10.667-5.333z"></path>
</svg>
<svg id="icon-phone" width="32" height="32" viewBox="0 0 32 32" x="528" y="0">
<path d="M28.865 21.822l-4.525-0.517c-1.087-0.125-2.155 0.249-2.921 1.015l-3.278 3.278c-5.041-2.565-9.174-6.68-11.739-11.739l3.296-3.296c0.766-0.766 1.14-1.835 1.015-2.921l-0.517-4.489c-0.214-1.799-1.728-3.153-3.545-3.153h-3.082c-2.013 0-3.687 1.675-3.563 3.687 0.944 15.213 13.111 27.362 28.306 28.306 2.013 0.125 3.687-1.55 3.687-3.563v-3.082c0.018-1.799-1.336-3.313-3.135-3.527z"></path>
</svg>
<svg id="icon-email" width="24" height="32" viewBox="0 0 24 32" x="576" y="0">
<path d="M20 8h-16c-1.1 0-1.99 0.9-1.99 2l-0.010 12c0 1.1 0.9 2 2 2h16c1.1 0 2-0.9 2-2v-12c0-1.1-0.9-2-2-2zM19.6 12.25l-7.070 4.42c-0.32 0.2-0.74 0.2-1.060 0l-7.070-4.42c-0.25-0.16-0.4-0.43-0.4-0.72 0-0.67 0.73-1.070 1.3-0.72l6.7 4.19 6.7-4.19c0.57-0.35 1.3 0.050 1.3 0.72 0 0.29-0.15 0.56-0.4 0.72z"></path>
</svg>
<svg id="icon-check-mark" width="40" height="32" viewBox="0 0 40 32" x="624" y="0">
<path d="M33.782 1.020c0.691-0.662 1.611-1.027 2.565-1.020s1.869 0.387 2.55 1.059c0.681 0.672 1.076 1.584 1.101 2.543s-0.321 1.891-0.966 2.598l-19.578 24.617c-0.337 0.365-0.743 0.657-1.195 0.86s-0.939 0.312-1.434 0.322c-0.495 0.009-0.986-0.082-1.445-0.268s-0.876-0.463-1.226-0.815l-12.984-13.054c-0.362-0.339-0.652-0.747-0.853-1.201s-0.309-0.944-0.318-1.441 0.082-0.99 0.267-1.451c0.185-0.461 0.461-0.879 0.81-1.231s0.766-0.628 1.224-0.814 0.949-0.277 1.443-0.269c0.494 0.009 0.981 0.118 1.433 0.32s0.858 0.494 1.195 0.857l10.275 10.325 17.042-21.83c0.031-0.038 0.063-0.074 0.098-0.109h-0.005z"></path>
</svg>
<svg id="icon-group" width="36" height="32" viewBox="0 0 36 32" x="672" y="0">
<path d="M1.199 4.002c0-0.637 0.253-1.247 0.703-1.697s1.061-0.703 1.697-0.703h28.8c0.637 0 1.247 0.253 1.697 0.703s0.703 1.061 0.703 1.697-0.253 1.247-0.703 1.697c-0.45 0.45-1.060 0.703-1.697 0.703h-28.8c-0.637 0-1.247-0.253-1.697-0.703s-0.703-1.061-0.703-1.697z"></path>
<path d="M1.199 16.002c0-0.637 0.253-1.247 0.703-1.697s1.061-0.703 1.697-0.703h28.8c0.637 0 1.247 0.253 1.697 0.703s0.703 1.061 0.703 1.697-0.253 1.247-0.703 1.697c-0.45 0.45-1.060 0.703-1.697 0.703h-28.8c-0.637 0-1.247-0.253-1.697-0.703s-0.703-1.061-0.703-1.697z"></path>
<path d="M1.199 28.002c0-0.637 0.253-1.247 0.703-1.697s1.061-0.703 1.697-0.703h28.8c0.637 0 1.247 0.253 1.697 0.703s0.703 1.060 0.703 1.697c0 0.636-0.253 1.247-0.703 1.697s-1.060 0.703-1.697 0.703h-28.8c-0.637 0-1.247-0.253-1.697-0.703s-0.703-1.061-0.703-1.697z"></path>
</svg>
</svg>
